<?xml version="1.0" standalone="no"?>
<!DOCTYPE svg PUBLIC "-//W3C//DTD SVG 20010904//EN" "http://www.w3.org/TR/2001/REC-SVG-20010904/DTD/svg10.dtd">
<svg version="1.0" xmlns="http://www.w3.org/2000/svg" width="2065.000000pt" height="2065.000000pt" viewBox="0 0 2065.000000 2065.000000" preserveAspectRatio="xMidYMid meet">
    <metadata>
        Created by potrace 1.14, written by Peter Selinger 2001-2017
    </metadata>
    <g transform="translate(0.000000,2065.000000) scale(0.100000,-0.100000)" fill="#000000" stroke="none">
        <path d="M3100 17673 c0 -357 -2 -1831 -4 -3278 -2 -1446 -4 -2729 -4 -2850 0 -225 1 -270 13 -550 4 -88 9 -187 10 -220 2 -63 13 -230 20 -325 2 -30 7 -95 10 -145 3 -49 8 -108 10 -130 3 -22 7 -76 10 -120 3 -44 8 -91 10 -105 2 -14 6 -59 10 -100 3 -41 8 -82 10 -90 2 -8 7 -49 10 -90 4 -41 9 -77 10 -80 2 -3 6 -30 10 -60 3 -30 10 -71 15 -90 5 -19 12 -60 15 -90 3 -30 8 -63 11 -72 3 -9 7 -25 9 -35 4 -19 22 -96 30 -125 3 -10 7 -28 10 -40 19 -89 230 -727 265 -803 5 -11 37 -94 71 -185 70 -188 91 -235 151 -341 54 -97 158 -272 180 -307 10 -15 21 -34 24 -42 4 -8 77 -120 163 -249 86 -128 161 -241 166 -250 6 -9 12 -18 16 -21 3 -3 52 -68 110 -145 203 -272 383 -480 623 -720 207 -207 383 -359 521 -450 31 -21 54 -39 52 -41 -2 -3 -352 -7 -778 -10 -837 -5 -844 -6 -908 -60 -16 -13 -33 -33 -36 -44 -3 -10 10 -67 30 -127 36 -108 90 -274 105 -325 l8 -27 -166 4 c-92 3 -232 7 -312 10 -80 2 -228 7 -330 10 -281 9 -450 14 -610 20 -80 2 -219 7 -310 10 -91 3 -235 7 -320 10 -85 3 -225 7 -310 10 -85 3 -216 7 -290 10 -74 2 -209 7 -300 10 -91 3 -226 8 -300 10 -74 3 -207 7 -295 10 -88 3 -223 7 -300 10 -89 4 -157 2 -187 -6 l-48 -11 0 -47 c0 -54 7 -62 85 -103 70 -36 113 -60 515 -278 195 -106 384 -209 420 -228 36 -19 85 -46 110 -60 25 -14 83 -45 130 -70 47 -25 144 -77 215 -117 72 -39 137 -75 145 -78 8 -4 42 -22 75 -40 150 -83 407 -222 498 -270 26 -14 44 -28 40 -30 -11 -6 -483 -256 -613 -325 -58 -30 -127 -67 -155 -82 -27 -15 -95 -51 -150 -80 -55 -29 -136 -72 -180 -95 -44 -23 -134 -70 -200 -105 -66 -34 -142 -75 -170 -90 -27 -15 -102 -55 -165 -88 -63 -33 -137 -72 -165 -87 -53 -29 -282 -149 -377 -199 -64 -33 -66 -38 -40 -106 l18 -45 214 -5 c336 -8 5510 -5 5560 4 25 4 58 12 73 18 26 10 28 15 22 45 -6 32 -7 75 -20 496 l-5 188 252 -6 c139 -3 367 -7 506 -10 138 -3 273 -10 300 -15 72 -14 92 -19 110 -24 9 -3 28 -7 42 -10 14 -3 70 -14 125 -26 55 -12 111 -24 125 -26 14 -3 41 -9 60 -14 19 -5 46 -11 60 -14 30 -6 259 -56 280 -61 8 -2 51 -11 95 -20 44 -9 96 -20 115 -25 19 -5 46 -11 60 -14 14 -3 70 -14 125 -26 55 -12 107 -23 115 -25 48 -10 359 -78 435 -95 50 -11 104 -23 120 -26 17 -3 68 -14 115 -24 165 -38 318 -70 585 -125 149 -30 279 -57 290 -60 11 -2 34 -7 50 -10 17 -3 107 -22 200 -41 94 -20 179 -37 190 -39 11 -2 31 -6 45 -9 14 -3 92 -19 174 -36 135 -28 161 -30 280 -25 163 6 372 14 549 20 97 4 166 12 244 31 59 14 115 27 123 29 8 2 33 8 55 13 22 6 51 13 65 16 14 2 32 7 40 10 8 3 26 7 40 10 14 2 198 48 410 101 212 53 392 98 400 100 8 2 89 22 180 45 91 23 172 43 180 45 8 2 76 19 150 39 74 19 214 55 310 79 194 49 651 167 975 251 115 30 211 54 212 53 1 -1 -16 -72 -37 -158 -21 -85 -41 -172 -44 -192 -3 -20 -10 -56 -15 -79 -6 -24 -12 -54 -14 -68 -3 -14 -11 -53 -18 -87 -16 -76 -3 -127 42 -172 l30 -31 137 5 c75 3 180 7 232 10 52 2 165 7 250 10 85 3 200 8 255 10 55 3 159 7 230 10 72 3 180 7 240 10 61 2 173 7 250 10 77 3 185 8 240 10 55 3 165 7 245 10 80 3 190 7 245 10 96 4 273 11 495 20 58 2 161 7 230 10 69 3 181 7 250 10 128 5 290 11 510 21 69 2 172 7 230 9 238 9 390 16 485 20 55 2 161 7 235 10 74 3 185 7 245 10 61 2 171 7 245 10 126 4 206 9 339 21 29 2 86 7 126 9 40 3 81 7 92 9 10 2 46 7 80 11 66 7 102 30 138 87 16 25 15 28 -4 47 -12 12 -28 21 -36 21 -8 0 -270 126 -582 281 -312 154 -792 392 -1065 527 -274 135 -498 248 -498 252 0 3 105 58 233 123 373 189 863 442 982 507 28 15 104 55 170 90 66 34 134 70 150 80 17 9 62 34 100 55 250 135 466 264 522 311 l38 32 -30 32 -30 31 -195 -6 c-107 -4 -238 -8 -290 -10 -52 -2 -185 -7 -295 -10 -110 -4 -247 -8 -305 -10 -58 -2 -186 -7 -285 -10 -99 -3 -229 -8 -290 -10 -209 -7 -460 -16 -585 -20 -69 -2 -199 -6 -290 -10 -231 -8 -421 -14 -590 -20 -263 -9 -443 -15 -593 -20 l-148 -6 16 38 c9 21 27 58 41 82 21 38 24 53 19 100 -10 86 -35 229 -45 257 l-10 26 -418 -6 c-229 -4 -509 -8 -622 -11 -113 -3 -298 -7 -412 -10 l-207 -5 -21 30 c-20 28 -20 29 -1 35 38 12 347 257 460 365 15 14 69 63 121 110 124 111 494 481 545 545 22 27 46 57 54 65 79 81 661 944 661 979 0 5 4 11 8 13 9 3 38 53 150 253 50 89 171 328 197 390 47 110 105 258 129 330 15 44 31 89 36 100 30 70 149 487 166 585 3 14 9 41 14 60 5 19 12 53 16 75 3 22 7 42 9 45 2 3 12 57 24 120 29 166 30 171 37 220 3 25 8 54 10 64 5 29 23 163 29 231 4 33 8 71 10 85 4 25 11 108 20 225 13 178 15 620 20 4108 l5 3797 -7340 0 -7340 0 0 -647z" />
    </g>
</svg>
